<svg xmlns="http://www.w3.org/2000/svg" width="87" height="87" viewBox="0 0 87 87">
    <defs>
        <linearGradient id="a" x1="50%" x2="50%" y1="0%" y2="100%">
            <stop offset="0%" stop-color="#E34A56"/>
            <stop offset="100%" stop-color="#7A161B"/>
        </linearGradient>
    </defs>
    <g fill="url(#a)" fill-rule="nonzero" transform="translate(-779 -2133)">
        <path d="M779 2211h10v3h-10zM784.835 2206h10.129v2.8h-10.13zM779.047 2206h2.894v2.8h-2.894zM784.835 2217.2h10.129v2.8h-10.13zM779.047 2217.2h2.894v2.8h-2.894zM792.07 2211.6h2.894v2.8h-2.894zM849.95 2211.6h10.128v2.8h-10.129zM855.737 2206h10.129v2.8h-10.129zM849.95 2206h2.893v2.8h-2.894zM855.737 2217.2h10.129v2.8h-10.129zM849.95 2217.2h2.893v2.8h-2.894zM862.972 2211.6h2.894v2.8h-2.894zM779 2140h10v3h-10zM784.835 2134.447h10.129v2.894h-10.13zM779.047 2134.447h2.894v2.894h-2.894zM784.835 2146.023h10.129v2.894h-10.13zM779.047 2146.023h2.894v2.894h-2.894zM792.07 2140.235h2.894v2.894h-2.894zM849.95 2140.235h10.128v2.894h-10.129zM855.737 2134.447h10.129v2.894h-10.129zM849.95 2134.447h2.893v2.894h-2.894zM855.737 2146.023h10.129v2.894h-10.129zM849.95 2146.023h2.893v2.894h-2.894zM862.972 2140.235h2.894v2.894h-2.894z"/>
        <path d="M794.709 2153.504a5.78 5.78 0 1 0-5.533 9.677v26.457a5.778 5.778 0 1 0 5.533 9.677l22.21 13.125a5.788 5.788 0 1 0 11.075 0l22.21-13.125a5.78 5.78 0 1 0 5.533-9.677v-26.457a5.778 5.778 0 1 0-5.533-9.677l-22.21-13.124a5.737 5.737 0 0 0 .25-1.592 5.788 5.788 0 0 0-11.576 0c.009.54.093 1.075.25 1.592l-22.209 13.124zm53.793 41.716c.008.54.093 1.076.25 1.592l-22.21 13.124a5.775 5.775 0 0 0-2.639-1.487v-31.213l26.3-15.542a5.775 5.775 0 0 0 2.64 1.487v26.457a5.788 5.788 0 0 0-4.34 5.582zm-56.432-5.582v-26.457a5.761 5.761 0 0 0 2.638-1.487l26.301 15.542v31.213a5.775 5.775 0 0 0-2.639 1.487l-22.21-13.124a5.664 5.664 0 0 0-4.09-7.174zm56.682-30.448l-26.296 15.538-26.296-15.538a5.186 5.186 0 0 0 0-3.183l22.21-13.124a5.778 5.778 0 0 0 8.171.001l.002-.001 22.21 13.124a5.186 5.186 0 0 0 0 3.183zm-61.023-1.591a2.894 2.894 0 1 1 5.787 0 2.894 2.894 0 0 1-5.787 0zm2.894 40.515a2.894 2.894 0 1 1 0-5.787 2.894 2.894 0 0 1 0 5.787zm31.833 18.811a2.894 2.894 0 1 1 0-5.788 2.894 2.894 0 0 1 0 5.788zm34.728-21.705a2.894 2.894 0 1 1-5.788 0 2.894 2.894 0 0 1 5.788 0zm-2.894-40.515a2.894 2.894 0 1 1 0 5.788 2.894 2.894 0 0 1 0-5.788zm-31.834-18.811a2.894 2.894 0 1 1 0 5.788 2.894 2.894 0 0 1 0-5.788z"/>
        <path d="M811 2181.067l1.838-1.067 1.162 1.933-1.838 1.067zM806 2183.067l1.838-1.067 1.162 1.933-1.838 1.067zM816 2179.067l1.838-1.067 1.162 1.933-1.838 1.067zM802 2186.067l1.838-1.067 1.162 1.933-1.838 1.067zM797 2190.067l1.838-1.067 1.162 1.933-1.838 1.067zM844 2190.933l1.162-1.933 1.838 1.067-1.162 1.933zM839 2186.933l1.162-1.933 1.838 1.067-1.162 1.933zM835 2183.933l1.162-1.933 1.838 1.067-1.162 1.933zM825 2179.933l1.162-1.933 1.838 1.067-1.162 1.933zM830 2181.933l1.162-1.933 1.838 1.067-1.162 1.933z"/>
        <g>
            <path d="M820.046 2168.956h2.823v2.869h-2.823zM820.046 2163.218h2.823v2.87h-2.823zM820.046 2157.48h2.823v2.87h-2.823zM820.046 2151.742h2.823v2.87h-2.823zM820.046 2146.004h2.823v2.87h-2.823z"/>
        </g>
    </g>
</svg>
