<svg xmlns="http://www.w3.org/2000/svg" xmlns:xlink="http://www.w3.org/1999/xlink" width="208" height="75" viewBox="0 0 208 75">
    <defs>
        <path id="a" d="M.258.435h191.016V43H.258z"/>
    </defs>
    <g fill="none" fill-rule="evenodd">
        <path fill="#FFF" d="M51 55h-8.924l-5.096-7.186L31.744 55H23l9.411-12.016L23.149 31h8.922l5.013 7.043L42.123 31h8.77l-9.282 11.821zM74.244 46.269c0 2.46-1.106 4.443-3.316 5.948-2.211 1.506-5.237 2.258-9.077 2.258-2.126 0-4.054-.197-5.782-.593-1.73-.396-3.118-.834-4.167-1.315V46.29h.702c.382.269.825.562 1.329.88.502.318 1.214.661 2.136 1.028.793.326 1.693.605 2.7.838 1.005.233 2.083.35 3.23.35 1.502 0 2.615-.166 3.338-.498.722-.332 1.084-.824 1.084-1.474 0-.58-.213-1-.638-1.262-.425-.261-1.233-.512-2.423-.753a35.672 35.672 0 0 0-2.306-.413c-.971-.148-1.854-.33-2.647-.54-2.168-.566-3.777-1.446-4.825-2.641-1.05-1.195-1.574-2.683-1.574-4.464 0-2.29 1.088-4.195 3.263-5.715 2.176-1.52 5.148-2.28 8.918-2.28 1.786 0 3.497.18 5.134.541 1.636.36 2.915.746 3.837 1.156v6.022h-.66c-1.133-.777-2.426-1.41-3.879-1.898a13.784 13.784 0 0 0-4.411-.731c-1.233 0-2.271.169-3.114.509-.843.34-1.265.82-1.265 1.442 0 .565.191.996.574 1.293.383.297 1.283.594 2.7.89.78.157 1.619.308 2.519.457.9.148 1.803.336 2.71.562 2.012.523 3.5 1.346 4.464 2.47.964 1.124 1.446 2.528 1.446 4.21M95.012 41.741c0-2.314-.396-3.994-1.188-5.039-.792-1.044-2.043-1.566-3.754-1.566-.721 0-1.463.11-2.227.328a9.337 9.337 0 0 0-2.185.942v11.963c.51.197 1.054.325 1.634.381.58.056 1.152.085 1.718.085 2.021 0 3.528-.59 4.517-1.768.99-1.179 1.485-2.954 1.485-5.326m7.886-.159c0 1.965-.3 3.753-.902 5.365-.602 1.612-1.39 2.94-2.367 3.987-1.02 1.103-2.173 1.937-3.46 2.502a10.186 10.186 0 0 1-4.141.848c-1.359 0-2.512-.145-3.46-.434a16.682 16.682 0 0 1-2.91-1.22v9.925h-7.673V30.004h7.673v2.48a18.599 18.599 0 0 1 3.6-2.268c1.224-.58 2.636-.87 4.235-.87 2.972 0 5.283 1.09 6.932 3.266 1.649 2.177 2.473 5.167 2.473 8.97M122.987 38.846c-.042-1.597-.44-2.799-1.19-3.605-.753-.806-1.921-1.208-3.508-1.208-1.474 0-2.686.381-3.635 1.145-.95.763-1.481 1.986-1.595 3.668h9.928zm7.61 4.475h-17.516c.113 1.866.825 3.294 2.136 4.283 1.31.99 3.242 1.485 5.793 1.485 1.615 0 3.18-.29 4.698-.87 1.515-.58 2.714-1.201 3.592-1.866h.85v6.129c-1.728.693-3.358 1.195-4.89 1.505-1.53.311-3.223.467-5.08.467-4.79 0-8.46-1.074-11.01-3.223-2.55-2.15-3.826-5.21-3.826-9.183 0-3.93 1.207-7.043 3.623-9.34 2.417-2.298 5.73-3.447 9.938-3.447 3.883 0 6.803.98 8.758 2.937 1.956 1.959 2.934 4.775 2.934 8.45v2.673zM151.96 37.277h-.678c-.326-.113-.849-.198-1.57-.254a23.859 23.859 0 0 0-1.803-.085c-1.089 0-2.05.07-2.884.212-.835.141-1.733.382-2.694.72v15.948h-7.674V30.004h7.674v3.499c1.683-1.443 3.146-2.4 4.39-2.874 1.244-.473 2.39-.71 3.436-.71.269 0 .573.007.913.02.339.015.636.036.89.065v7.273zM169.412 47.589v-4.947a83.233 83.233 0 0 0-3.358.35c-1.205.147-2.119.32-2.743.517-.765.24-1.35.589-1.753 1.047-.404.458-.606 1.06-.606 1.807 0 .493.042.895.128 1.205.085.31.297.606.637.887.326.282.715.49 1.169.624.454.134 1.162.2 2.126.2.765 0 1.541-.154 2.328-.464a7.267 7.267 0 0 0 2.072-1.226zm0 3.705c-.41.311-.921.686-1.53 1.124-.61.438-1.183.785-1.722 1.04-.751.339-1.53.59-2.338.752-.808.162-1.694.244-2.657.244-2.268 0-4.167-.7-5.697-2.1-1.531-1.4-2.296-3.187-2.296-5.364 0-1.74.39-3.16 1.17-4.263.778-1.103 1.883-1.972 3.315-2.608 1.417-.636 3.174-1.089 5.272-1.357a92.656 92.656 0 0 1 6.526-.594v-.127c0-1.315-.539-2.223-1.616-2.725-1.077-.502-2.664-.753-4.762-.753-1.26 0-2.607.223-4.038.668-1.432.445-2.46.788-3.083 1.028h-.701v-5.747c.807-.212 2.122-.463 3.943-.752 1.82-.29 3.646-.435 5.474-.435 4.35 0 7.493.668 9.428 2.004 1.934 1.336 2.902 3.432 2.902 6.287v16.202h-7.59v-2.524z"/>
        <path fill="#DC1F26" d="M176.398 32.808c19.273 6.525 30.96 14.453 30.335 22.136-1.216 14.974-48.721 23.356-106.081 18.718-35.047-2.834-65.675-9.875-83.925-18.339 18.29 6.193 43.41 11.123 71.338 13.381 57.361 4.639 104.865-3.743 106.082-18.717.473-5.825-6.13-11.79-17.75-17.18"/>
        <g transform="translate(15.538 32)">
            <mask id="b" fill="#fff">
                <use xlink:href="#a"/>
            </mask>
            <path fill="#DC1F26" d="M2.144 23.7c18.975 8.555 49.867 15.23 82.975 17.908 10.681.864 21.035 1.274 30.804 1.275 42.588 0 74.233-7.805 75.219-19.943.303-3.735-2.282-7.59-7.684-11.454-5.062-3.622-12.356-7.089-21.688-10.31 11.506 5.485 17.343 11.29 16.893 16.815-.299 3.68-3.344 7.024-9.051 9.938-5.5 2.808-13.231 5.104-22.98 6.824-20.043 3.537-46.361 4.25-74.108 2.005-26.506-2.143-51.445-6.773-70.38-13.058M116.074 43c-9.93 0-20.343-.426-30.964-1.285-16.902-1.366-33.593-3.807-48.269-7.059-14.208-3.148-26.544-7.05-35.674-11.284l-.909-.421.949.321C20.249 29.72 45.579 34.471 72.532 36.65c27.738 2.243 54.047 1.532 74.082-2.003 9.737-1.718 17.458-4.01 22.949-6.814 5.67-2.896 8.697-6.21 8.992-9.85.457-5.617-5.67-11.539-17.718-17.126l-.908-.422.95.322c9.786 3.313 17.404 6.894 22.642 10.641 5.435 3.889 8.036 7.775 7.728 11.55-.298 3.68-3.344 7.024-9.05 9.938-5.5 2.808-13.232 5.105-22.98 6.825-12.371 2.182-27.133 3.29-43.145 3.29" mask="url(#b)"/>
        </g>
        <path fill="#DC1F26" d="M30.413 42.395C11.14 35.87-.547 27.942.078 20.26 1.295 5.285 48.8-3.096 106.16 1.541c35.046 2.834 65.674 9.875 83.924 18.338-18.29-6.192-43.41-11.122-71.338-13.38C61.386 1.861 13.88 10.243 12.664 25.217c-.473 5.825 6.13 11.79 17.75 17.178"/>
        <path fill="#DC1F26" d="M75.35.32C32.767.32 1.12 8.127.132 20.265c-.304 3.735 2.282 7.589 7.684 11.454 5.062 3.622 12.356 7.089 21.688 10.31-11.505-5.486-17.343-11.29-16.894-16.816.299-3.68 3.345-7.023 9.052-9.938 5.5-2.808 13.231-5.104 22.98-6.824 20.043-3.536 46.36-4.248 74.108-2.005 26.504 2.144 51.443 6.773 70.38 13.058-18.974-8.554-49.867-15.23-82.975-17.907C95.47.732 85.122.32 75.35.32zM31.345 42.769l-.949-.321c-9.787-3.314-17.405-6.894-22.643-10.641-5.436-3.89-8.035-7.775-7.729-11.55.3-3.681 3.344-7.025 9.052-9.939 5.5-2.808 13.231-5.104 22.98-6.824C52.098-.044 78.417-.756 106.164 1.488c16.902 1.367 33.592 3.808 48.268 7.06 14.209 3.147 26.545 7.049 35.675 11.283l.908.421-.949-.321c-19.043-6.448-44.374-11.199-71.324-13.378C61.495 1.924 13.93 10.298 12.718 25.22c-.456 5.617 5.67 11.538 17.718 17.126l.909.42z"/>
    </g>
</svg>
