<svg xmlns="http://www.w3.org/2000/svg" xmlns:xlink="http://www.w3.org/1999/xlink" width="793" height="688" viewBox="0 0 793 688">
    <defs>
        <path id="a" d="M0 687.085h793.812V.548H0z"/>
        <path id="c" d="M.12 40.378c0 22.245 18.03 40.274 40.273 40.274 22.242 0 40.274-18.029 40.274-40.274C80.667 18.136 62.635.104 40.393.104 18.15.104.12 18.136.12 40.378"/>
        <path id="e" d="M.12 40.378c0 22.245 18.03 40.274 40.273 40.274 22.242 0 40.274-18.029 40.274-40.274C80.667 18.136 62.635.104 40.393.104 18.15.104.12 18.136.12 40.378z"/>
        <path id="g" d="M.12 40.378c0 22.245 18.03 40.274 40.273 40.274 22.242 0 40.274-18.029 40.274-40.274C80.667 18.136 62.635.104 40.393.104 18.15.104.12 18.136.12 40.378z"/>
        <path id="i" d="M.036 45.502l6.443 6.442C17.548 25.08 44.289 6.158 74.815 6.511L68.373.067c-.279-.003-.56-.006-.838-.006-30.178 0-56.529 18.822-67.5 45.44"/>
        <path id="k" d="M.036 45.502l6.443 6.442C17.548 25.08 44.289 6.158 74.815 6.511L68.373.067c-.279-.003-.56-.006-.838-.006-30.178 0-56.529 18.822-67.5 45.44"/>
        <path id="m" d="M.036 45.502l6.443 6.442C17.548 25.08 44.289 6.158 74.815 6.511L68.373.067c-.279-.003-.56-.006-.838-.006-30.178 0-56.529 18.822-67.5 45.44"/>
        <path id="o" d="M.036 45.502l6.443 6.442C17.548 25.08 44.289 6.158 74.815 6.511L68.373.067c-.279-.003-.56-.006-.838-.006-30.178 0-56.529 18.822-67.5 45.44"/>
        <path id="q" d="M.036 45.502l6.443 6.442C17.548 25.08 44.289 6.158 74.815 6.511L68.373.067c-.279-.003-.56-.006-.838-.006-30.178 0-56.529 18.822-67.5 45.44"/>
        <path id="s" d="M.036 45.502l6.443 6.442C17.548 25.08 44.289 6.158 74.815 6.511L68.373.067c-.279-.003-.56-.006-.838-.006-30.178 0-56.529 18.822-67.5 45.44"/>
        <path id="u" d="M.036 45.502l6.443 6.442C17.548 25.08 44.289 6.158 74.815 6.511L68.373.067c-.279-.003-.56-.006-.838-.006-30.178 0-56.529 18.822-67.5 45.44"/>
        <path id="w" d="M.036 45.502l6.443 6.442C17.548 25.08 44.289 6.158 74.815 6.511L68.373.067c-.279-.003-.56-.006-.838-.006-30.178 0-56.529 18.822-67.5 45.44"/>
        <path id="y" d="M.036 45.502l6.443 6.442C17.548 25.08 44.289 6.158 74.815 6.511L68.373.067c-.279-.003-.56-.006-.838-.006-30.178 0-56.529 18.822-67.5 45.44"/>
        <path id="A" d="M57.163 25.39l5.684 7.16C49.932 16.28 29.47 6.311 6.413 7.324L.729.165"/>
        <path id="C" d="M57.163 25.39l5.684 7.16C49.932 16.28 29.47 6.311 6.413 7.324L.729.165"/>
        <path id="E" d="M57.163 25.39l5.684 7.16C49.932 16.28 29.47 6.311 6.413 7.324L.729.165"/>
        <path id="G" d="M57.163 25.39l5.684 7.16C49.932 16.28 29.47 6.311 6.413 7.324L.729.165"/>
        <path id="I" d="M20.513 74.414l-5.683-7.16C5.795 55.875.455 41.413.5 25.47A71.096 71.096 0 0 1 5.018.772l5.683 7.16A71.074 71.074 0 0 0 6.185 32.63"/>
        <path id="K" d="M0 .727h51.115v97.348H0z"/>
        <path id="M" d="M.127.135h17.588V14.9H.127z"/>
        <path id="O" d="M.68.135H18.27V14.9H.68z"/>
        <path id="Q" d="M0 686.622h793.812V0H0z"/>
    </defs>
    <g fill="none" fill-rule="evenodd">
        <path fill="#595959" d="M361.274 464.788l-.313-2.191 43.462-26.547.313 2.19z"/>
        <path fill="#909090" d="M404.736 438.24l-.133 62.156h-86.215l.133-62.156 42.753 26.547z"/>
        <path fill="#555" d="M318.388 500.396l-.313-2.19.133-62.155.313 2.19z"/>
        <path fill="#747474" d="M318.52 438.24l-.312-2.19 42.753 26.546.312 2.191z"/>
        <path fill="#D80000" d="M404.736 438.24l-43.462 26.547-42.753-26.547z"/>
        <path fill="#9D0000" d="M318.52 438.24l-.312-2.19h86.216l.312 2.19z"/>
        <path fill="#AAA" d="M324 499h-5v-61l5 3.587z"/>
        <g>
            <path fill="#C6C6C6" d="M483.03 390.095H153.834c-6.841 0-12.39-5.546-12.39-12.39V157.912c0-6.843 5.549-12.388 12.39-12.388H483.03c6.844 0 12.39 5.545 12.39 12.388v219.793c0 6.844-5.546 12.39-12.39 12.39"/>
            <mask id="b" fill="#fff">
                <use xlink:href="#a"/>
            </mask>
            <path fill="#F2F2F2" d="M163.172 354.263h316.857V237.48H163.172zM478.771 184.975H160.81a6.69 6.69 0 0 1-6.692-6.69v-8.347a6.69 6.69 0 0 1 6.692-6.69H478.77a6.69 6.69 0 0 1 6.69 6.69v8.347a6.69 6.69 0 0 1-6.69 6.69M375.933 215.277H263.648a3.608 3.608 0 0 1-3.608-3.608v-4.502a3.608 3.608 0 0 1 3.608-3.608h112.285a3.608 3.608 0 0 1 3.608 3.608v4.502a3.608 3.608 0 0 1-3.608 3.608M162.266 154.649a3.168 3.168 0 1 1-6.335 0 3.168 3.168 0 0 1 6.335 0M174.036 154.649a3.169 3.169 0 1 1-6.338-.001 3.169 3.169 0 0 1 6.338 0M185.805 154.649a3.169 3.169 0 1 1-6.337-.001 3.169 3.169 0 0 1 6.337 0" mask="url(#b)"/>
            <g mask="url(#b)">
                <path fill="#CA0000" d="M206.232 408.392l23.43.357.695 58.718-23.43-.343z"/>
                <path fill="#A60000" d="M206.232 408.392l3.545-4.95 23.43.356-3.544 4.95zM229.663 408.749l3.544-4.95.695 58.716-3.545 4.952z"/>
            </g>
            <g mask="url(#b)">
                <path fill="#C0C0C0" d="M236.385 354.54l23.442.356 1.26 107.431-23.43-.355z"/>
                <path fill="#9E9E9E" d="M236.385 354.54l3.545-4.95 23.442.356-3.545 4.95zM259.827 354.896l3.546-4.95 1.26 107.43-3.547 4.951z"/>
            </g>
            <g mask="url(#b)">
                <path fill="#CACACA" d="M266.234 377.328l23.429.355.854 72.154-23.442-.342z"/>
                <path fill="#A6A6A6" d="M266.234 377.328l3.544-4.95 23.43.354-3.545 4.95z"/>
                <path fill="#A6A6A6" d="M289.663 377.683l3.544-4.95.854 72.153-3.545 4.95z"/>
            </g>
            <path fill="#FFF" d="M516.242 134.733c0 22.25-18.037 40.283-40.286 40.283-22.25 0-40.286-18.033-40.286-40.283s18.035-40.285 40.286-40.285c22.249 0 40.286 18.035 40.286 40.285" mask="url(#b)"/>
        </g>
        <g>
            <path fill="#1A1A1A" d="M757.01 57.126l-14.048-9.858 2.583-4.014c.985-3.514-.052-7.482 1.197-10.109 1.126-2.374 3.31-3.617 7.55-2.305 6.842 2.115 11.176 6.145 16.822 8.532 8.257 3.49 16.986 5.598 21.172 10.617 2.086 2.5 1.79 4.138.563 5.011-2.86 2.038-7.93.002-10.4-1.922-14.767-1.41-21.066 1.766-25.439 4.048"/>
            <path fill="#000" d="M746.352 34.269c.097-.396.222-.773.39-1.123 1.126-2.376 3.31-3.619 7.55-2.307 6.842 2.117 11.176 6.146 16.822 8.533 8.257 3.49 16.986 5.597 21.172 10.617 2.086 2.501 1.79 4.139.563 5.012a4.403 4.403 0 0 1-.17.113c-.113-.78-.568-1.722-1.5-2.84-4.185-5.017-12.912-7.125-21.17-10.614-5.647-2.388-9.98-6.416-16.822-8.533-3.476-1.076-5.57-.434-6.835 1.142M690.474 95.703c5.768-5.79 12.081-18.576 17.912-24.076 11.724-11.063 28.296-18.277 37.155-28.811l14.339 12.89-46.703 50.553c-8.807 9.017-21.83 20.72-22.194 7.615l-.509-18.171z"/>
            <path fill="#999" d="M690.474 95.703c5.768-5.79 12.081-18.576 17.912-24.076 11.724-11.063 28.296-18.277 37.155-28.811l6.09 5.582c-4.389 4.752-61.344 40.618-60.648 65.476l-.509-18.171z"/>
            <path fill="#1A1A1A" d="M707.027 29.004l-17.088 1.537-.612-4.735c-1.511-3.32-4.86-5.683-5.601-8.496-.67-2.541.201-4.904 4.285-6.638 5.103-2.169 9.217-1.306 13.892-2.932 10.192-3.545 20.055-8.276 27.48-6.97 3.207.566 4.035 2.007 3.66 3.467-.872 3.405-6.058 5.122-9.186 5.246-12.192 8.46-14.96 14.952-16.83 19.52"/>
            <path fill="#000" d="M684.123 18.358a5.638 5.638 0 0 1-.396-1.049c-.67-2.54.2-4.903 4.284-6.638 5.104-2.168 9.216-1.305 13.891-2.932 10.194-3.545 20.056-8.276 27.48-6.967 3.208.564 4.035 2.005 3.662 3.466-.04.155-.09.309-.147.455-.593-.501-1.534-.91-2.922-1.154-7.425-1.307-17.287 3.425-27.48 6.968-4.674 1.627-8.788.765-13.891 2.933-3.143 1.336-4.383 3.042-4.48 4.918M604.875 107.095c9.62-2.528 14.293-6.263 20.3-4.959 7.797 1.693 15.063 5.321 23.233 4.222 8.098-1.09 25.582-3.122 32.938-5.901 14.813-4.185 17.702-2.547 19.86 1.535 2.984 9.15 3.556 12.556-7.58 19.458-19.597 12.152-29.44 14.46-54.793 23.409-6.157 3.91-8.9 3.162-13.9 2.457-4.646-.655-10.455-2.262-17.385-3.214 1.72-12.618-1.595-27.679-2.673-37.007"/>
            <path fill="#000" d="M681.045 101.445c.674-8.148-2.739-21.995-1.828-29.963 1.83-16.024 9.843-32.24 9.824-46.008l19.264.59-3.11 68.786c-.92 12.579-.347 26.52-10.396 18.11l-13.754-11.515z"/>
            <path fill="#CCC" d="M604.875 107.095c9.62-2.528 14.293-6.263 20.3-4.959 7.797 1.693 15.063 5.321 23.233 4.222 8.01-1.077 25.2-3.077 32.694-5.81.378-8.236-2.762-21.384-1.886-29.066 1.83-16.023 9.845-32.24 9.826-46.009l7.316.224c-11.745 35.438-10.624 55.41-7.576 79.626-11.853 2.012-45.336 9.074-55.2 7.888-8.956-1.079-17.515-2.084-25.107 2.502-.746.45-1.474.884-2.193 1.308-.54-3.688-1.078-7.076-1.407-9.926"/>
            <path fill="#F2F2F2" d="M506.544 91.908c4.709-1.375 9.537-2.253 13.236-.054 3.632 2.155 4.284 7.459 5.73 11.344l4.105-20.943 4.532-8.237c-10.448-.03-10.63-.649-19.033-6.614l-6.11 3.191-4.539 8.585 2.079 12.728z"/>
            <path fill="#FFF" d="M493.528 84.684c.684.928.85 1.568.27 2.72.234.77 1.083 1.353 1.967 1.228-.402.837-.282 1.91.704 2.602.728-.172 1.146-.048 1.377.242.717.907-.142 3.828 2.161 4.87 2.773 1.256 10.096-7.867 13.517-12.093 2.832-3.502.453-5.465-1.78-9.232 2.216-.696 3.535-2.071 2.116-5.38.94-5.117.41-8.671.117-13.845 0 0-14.897-14.223-15.373-14.13-.476.091-13.188 8.15-13.188 8.15-.42 3.368-1.958 7.015-2.251 10.852-.405 5.31 1.96 8.892 2.343 11.164.323 1.929.954 2.628 1.722 3.304.354.31.881.651 1.075 1.068 1.559 3.323-.313 7.734.292 8.574.5.69 2.654 1.285 4.931-.094"/>
            <path fill="#7A7A7A" d="M476.659 58.155c7.998 8.953 14.392-3 18.212-.728 1.18.702-.553 2.149 1.177 4.661 1.186 1.723 2.674 2.026 3.862 3.407 1.67 1.943 1.305 3.539 4.16 6.23l1.376-1.526c.571-2.628 2.064-8.794 5.135-9.214 2.376-.325 3.402 3.818 3.232 7.176-.09 1.797.627 3.266 1.466 4.008 1.097.972 6.964 2.34 11.364 1.541-4.157-2.255-1.649-5.356-.98-9.551 1.283-8.029-4.431-19.418-11.684-20.232-7.663-5.2-14.382-4.663-20.494-1.547-9.517 4.853-10.12 12.591-16.826 15.775"/>
            <path fill="#686868" d="M476.659 58.155c7.998 8.953 14.392-3 18.212-.728l.14-3.143c-9.518 4.853-12.938 7.97-18.352 3.871"/>
            <path fill="#7A7A7A" d="M510.582 60.985c2.374-.325 3.403 3.82 3.232 7.176-.09 1.797.626 3.267 1.465 4.007 1.098.973 6.965 2.342 11.365 1.543-4.158-2.256-1.65-5.358-.98-9.552 1.283-8.029-4.432-19.418-11.686-20.23l-3.396 17.056z"/>
            <path fill="#AAA" d="M527.335 73.507c19.73.288 30.584 4.166 40.622 15.294 10.749 11.912 10.941 18.585 15.965 19.25 3.716.49 12.153.264 22.82-2.463 1.232 5.37 6.306 26.227 2.669 39.76-11.303-1.493-32.577-4.138-40.869-5.691-13.078-2.45-36.675-12.813-44.912-36.804 3.732-7.488 4.366-23.595 3.705-29.346"/>
            <path fill="#8E8E8E" d="M527.335 73.507c19.73.288 30.584 4.166 40.622 15.294 10.749 11.912 10.941 18.585 15.965 19.25 3.716.49 12.153.264 22.82-2.463.417 1.82 1.278 5.422 2.088 9.913l-.356.213c-18.418 11.126-28.495 14.236-59.957 16.228l1.767-.839s-.232.563-.632 1.558c-10.476-5.807 13.268-1.59 8.296-16.073-5.033-7.445-19.59-18.148-17.762-21.046 1.608-2.55 13.571-12.314 10.794-13.678-4.803-5.443-16.279-6.5-21.773-5.45-.934.18-1.793-2.218-1.872-2.907"/>
            <path fill="#8E8E8E" d="M527.335 73.507c1.357-.215 4.528.593 5.79.453-3.383 4.944 2.667 25.356-5.444 38.318-1.24-2.327-2.96-5.79-3.99-9.101 3.733-7.488 4.305-23.92 3.644-29.67"/>
            <path fill="#AAA" d="M580.84 101.481c-9.847-7.11-22.035-15.293-27.784-20.52-10.874-6.827-18.484 1.301-18.444 7.851.036 5.915 5.715 10.409 16.56 17.17 6.948 4.33 18.385 12.388 21.574 14.155 18.232 10.09 23.868-7.273 8.093-18.656"/>
            <path fill="#E6E6E6" d="M527.438 136.594l-12.816.654-2.476-13.671 1.976-.735.457-1.74 9.538-1.97 13.443 2.69 1.66 8.728z"/>
            <path fill="#AAA" d="M580.257 125.722l-46.059 9.05-1.012-14.482 43.837-13.533c7.544-1.558 11.707 2.794 12.817 7.325.978 3.982.08 7.84-9.583 11.64"/>
            <path fill="#8E8E8E" d="M560.634 112.048c10.485-3.09 15.352-3.922 26.281-4.125-1.784-2.207-3.068-3.88-5.009-5.479-3.718-3.054-19.412 6.5-23.676 7.967l2.404 1.637z"/>
            <g transform="translate(435 94)">
                <mask id="d" fill="#fff">
                    <use xlink:href="#c"/>
                </mask>
                <path fill="#FFF" d="M80.667 40.38c0 22.243-18.031 40.272-40.274 40.272C18.15 80.652.12 62.622.12 40.379.12 18.136 18.15.105 40.393.105c22.243 0 40.274 18.03 40.274 40.274" mask="url(#d)"/>
            </g>
            <g transform="translate(435 94)">
                <mask id="f" fill="#fff">
                    <use xlink:href="#e"/>
                </mask>
                <path stroke="#D70000" d="M54.401 29.872c0 6.77-5.487 12.258-12.256 12.258-6.77 0-12.258-5.488-12.258-12.258 0-6.77 5.488-12.256 12.258-12.256 6.77 0 12.256 5.487 12.256 12.256z" mask="url(#f)"/>
            </g>
            <g transform="translate(435 94)">
                <mask id="h" fill="#fff">
                    <use xlink:href="#g"/>
                </mask>
                <path stroke="#D70000" d="M42.144 42.13c15.474 0 28.016 12.544 28.016 28.017 0 15.473-12.542 28.016-28.016 28.016-15.474 0-28.016-12.543-28.016-28.016 0-15.473 12.542-28.017 28.016-28.017z" mask="url(#h)"/>
            </g>
        </g>
        <path fill="#F00" d="M551.034 370.37l-6.46-6.48c-30.616-.355-57.435 18.673-68.537 45.688l6.46 6.48c11.103-27.015 37.92-46.043 68.537-45.688"/>
        <path fill="#F00" d="M551.034 370.37c-30.616-.355-57.434 18.673-68.537 45.688l65.896 25.722 2.64-71.41z"/>
        <g>
            <g transform="translate(476 364)">
                <mask id="j" fill="#fff">
                    <use xlink:href="#i"/>
                </mask>
                <path fill="#E6E6E6" d="M74.814 6.51L68.374.068l-.16-.001 6.441 6.443.16.002" mask="url(#j)"/>
            </g>
            <g transform="translate(476 364)">
                <mask id="l" fill="#fff">
                    <use xlink:href="#k"/>
                </mask>
                <path fill="#E6E6E6" d="M74.655 6.51L68.214.065c-2.03-.02-4.043.047-6.036.196l6.441 6.443a71.579 71.579 0 0 1 6.036-.196" mask="url(#l)"/>
            </g>
            <g transform="translate(476 364)">
                <mask id="n" fill="#fff">
                    <use xlink:href="#m"/>
                </mask>
                <path fill="#E6E6E6" d="M68.62 6.705L62.177.261a71.38 71.38 0 0 0-5.943.692l6.44 6.443a72.096 72.096 0 0 1 5.944-.691" mask="url(#n)"/>
            </g>
            <g transform="translate(476 364)">
                <mask id="p" fill="#fff">
                    <use xlink:href="#o"/>
                </mask>
                <path fill="#E6E6E6" d="M62.674 7.396L56.234.952a71.97 71.97 0 0 0-6 1.217l6.442 6.444a71.936 71.936 0 0 1 5.998-1.217" mask="url(#p)"/>
            </g>
            <g transform="translate(476 364)">
                <mask id="r" fill="#fff">
                    <use xlink:href="#q"/>
                </mask>
                <path fill="#E6E6E6" d="M56.675 8.613l-6.44-6.444a71.973 71.973 0 0 0-6.29 1.865l6.442 6.443a72.09 72.09 0 0 1 6.288-1.864" mask="url(#r)"/>
            </g>
            <g transform="translate(476 364)">
                <mask id="t" fill="#fff">
                    <use xlink:href="#s"/>
                </mask>
                <path fill="#E6E6E6" d="M50.387 10.477l-6.44-6.444a72.952 72.952 0 0 0-6.823 2.76l6.441 6.444a72.564 72.564 0 0 1 6.822-2.76" mask="url(#t)"/>
            </g>
            <g transform="translate(476 364)">
                <mask id="v" fill="#fff">
                    <use xlink:href="#u"/>
                </mask>
                <path fill="#E6E6E6" d="M43.566 13.237l-6.442-6.444a73.458 73.458 0 0 0-8.091 4.4l6.44 6.444a73.24 73.24 0 0 1 8.093-4.4" mask="url(#v)"/>
            </g>
            <g transform="translate(476 364)">
                <mask id="x" fill="#fff">
                    <use xlink:href="#w"/>
                </mask>
                <path fill="#E6E6E6" d="M35.472 17.637l-6.44-6.444c-11.864 7.451-21.5 18.215-27.525 30.981l6.44 6.444c6.027-12.766 15.661-23.532 27.525-30.98" mask="url(#x)"/>
            </g>
            <g transform="translate(476 364)">
                <mask id="z" fill="#fff">
                    <use xlink:href="#y"/>
                </mask>
                <path fill="#E6E6E6" d="M7.947 48.618l-6.44-6.444a72.551 72.551 0 0 0-1.47 3.327l6.442 6.443c.462-1.122.952-2.23 1.468-3.326" mask="url(#z)"/>
            </g>
        </g>
        <g transform="translate(0 1)">
            <g transform="translate(570.671 395.253)">
                <mask id="B" fill="#fff">
                    <use xlink:href="#A"/>
                </mask>
                <path fill="#707070" d="M6.413 7.325L.729.165c4.3-.188 8.51.003 12.597.548l5.683 7.16a71.434 71.434 0 0 0-12.596-.548" mask="url(#B)"/>
            </g>
            <g transform="translate(570.671 395.253)">
                <mask id="D" fill="#fff">
                    <use xlink:href="#C"/>
                </mask>
                <path fill="#747474" d="M19.009 7.874L13.325.714c11.93 1.589 22.816 6.172 31.863 12.998l5.684 7.159C41.824 14.047 30.938 9.46 19.009 7.874" mask="url(#D)"/>
            </g>
            <g transform="translate(570.671 395.253)">
                <mask id="F" fill="#fff">
                    <use xlink:href="#E"/>
                </mask>
                <path fill="#707070" d="M50.872 20.87l-5.684-7.158a66.299 66.299 0 0 1 9.542 8.786l5.684 7.16a66.217 66.217 0 0 0-9.542-8.787" mask="url(#F)"/>
            </g>
            <g transform="translate(570.671 395.253)">
                <mask id="H" fill="#fff">
                    <use xlink:href="#G"/>
                </mask>
                <path fill="#6D6D6D" d="M60.413 29.658l-5.684-7.16c.838.941 1.65 1.906 2.434 2.892l5.684 7.16a64.212 64.212 0 0 0-2.434-2.892" mask="url(#H)"/>
            </g>
            <path fill="#555" d="M576.882 472.724l-5.684-7.16.203-70.145 5.684 7.159z"/>
            <path fill="#909090" d="M577.084 402.578c39.19-1.724 70.881 28.285 70.768 67.022-.111 38.738-31.984 71.53-71.172 73.256-39.202 1.723-70.895-28.272-70.782-67.01a71.055 71.055 0 0 1 4.517-24.697l66.466 21.575.203-70.146z"/>
            <g transform="translate(499.713 443.217)">
                <mask id="J" fill="#fff">
                    <use xlink:href="#I"/>
                </mask>
                <path fill="#585858" d="M20.513 74.414l-5.684-7.16C5.796 55.875.455 41.413.501 25.472A71.097 71.097 0 0 1 5.019.771l5.683 7.161A71.09 71.09 0 0 0 6.184 32.63c-.046 15.942 5.296 30.404 14.329 41.784" mask="url(#J)"/>
            </g>
            <path fill="#787878" d="M510.415 451.149l-5.684-7.16 66.467 21.575 5.684 7.16z"/>
            <path fill="#E6E6E6" d="M97.233 339.77s1.44-2.218 1.712-3.851c.289-1.735-.564-2.901.458-3.3 1.987-.768 3.679-.071 5.638-2.78 1.958-2.71 3.185-7.073 5.2-5.904 2.01 1.17 4.766 2.388 5.197 5.485.431 3.096-3.762 9.584-5.658 10.828-1.897 1.245-5.865 2.248-7.367 4.834-1.505 2.59-5.18-5.312-5.18-5.312"/>
            <path fill="#E9526A" d="M33.507 389.485s-5.137 3.146-4.98 9.854c.159 6.707 2.713 11.81 12.06 11.358 9.345-.456 24.346-19.804 34.736-28.388 10.388-8.584 30.386-38.114 30.386-38.114L97.618 338s-22.437 23.703-32.21 31.376c-15.22 11.95-31.9 20.11-31.9 20.11"/>
            <path fill="#7A7A7A" d="M33.507 389.485s-5.137 3.146-4.98 9.854c.159 6.707 2.713 11.81 12.06 11.358 9.345-.456 24.346-19.804 34.736-28.388 10.388-8.584 30.386-38.114 30.386-38.114L97.618 338s-22.437 23.703-32.21 31.376c-15.22 11.95-31.9 20.11-31.9 20.11"/>
            <path fill="#FFF" d="M98.945 335.92c-1.237-5.611 1.843-10.268 3.627-10.66 2.129-.47.872 3.257.158 5.415-1.02 3.07 1.725 7.825 1.725 7.825s-5.093-.689-5.51-2.58M134.498 385.976s2.586-1.135 3.785-2.434c1.275-1.38 1.198-2.924 2.343-2.678 2.225.477 3.328 2.088 6.663.819 3.338-1.27 6.992-4.45 8.103-2.224 1.112 2.224 2.859 4.925 1.43 7.943-1.43 3.02-8.975 6.355-11.397 6.355-2.424 0-6.555-1.429-9.414 0-2.86 1.43-1.513-7.781-1.513-7.781"/>
            <path fill="#E6E6E6" d="M35.165 500.019c-1.288 2.94 8.513 59.576 6.435 73.813-.983 6.738 4.849 79.62 6.205 93.179h11.297s.498-78.69 3.244-93.728c5.33-29.175 5.541-75.866-2.215-85.307-4.397-5.355-24.966 12.043-24.966 12.043"/>
            <path fill="#E6E6E6" d="M15.734 492.613c-8.504 29.103-1.975 66.983-4.052 81.218-.983 6.74 4.848 79.622 6.204 93.18h11.297s.499-78.69 3.244-93.729c5.33-29.174 11.25-71.22 11.25-71.22l-27.943-9.449z"/>
            <path fill="#C9C9C9" d="M39.845 387.476s14.66 1.865 21 6.863c7.506 5.918-3.901 11.435 2.702 18.058 0 0-4.661 12.198-6.603 23.732-1.944 11.534 9.197 72.848 10.89 89.747 0 0-21.047 10.47-39.31 10.47S2.622 524.9 2.622 524.9s6.914-55.047 4.97-71.388c-1.941-16.342-4.271-41.6-2.33-51.318 1.944-9.715 15.155-11.229 15.155-11.229l19.428-3.489z"/>
            <path fill="#F8D2A1" d="M52.197 356.383s5.028 9.557 4.591 10.72c-.434 1.164-4.591 3.546-4.591 3.546v-14.266z"/>
            <path fill="#FFF" d="M52.197 356.383s5.028 9.557 4.591 10.72c-.434 1.164-4.591 3.546-4.591 3.546v-14.266z"/>
            <path fill="#FFF" d="M50.337 346.96c.277 1.906 1.054 5.319 1.86 9.423.805 4.102 1.637 8.895 2.025 13.557.371 4.443 1.96 7.646-1.357 9.373-1.74.905-6.812 2.609-7.267 10.537-.436 7.615-20.01 5.919-20.855-7.994-.566-9.34 13.16-29.014 13.16-29.014l12.434-5.882z"/>
            <path fill="#BCBCBC" d="M57.3 392.738s-6.02-.188-9.568 5.506c-3.546 5.696-5.956 13.11 2.109 17.858 8.06 4.748 32.141 4.748 45.535 3.272 13.398-1.476 42.509-24.655 42.509-24.655l-2.547-8.863s-17.408 7.165-26.917 11.22c-9.507 4.055-11.197 5.781-23.545 4.42-12.348-1.36-27.576-8.758-27.576-8.758"/>
            <path fill="#1F3A49" d="M51.474 356.384a1.81 1.81 0 1 1-3.526.795 1.81 1.81 0 0 1 3.526-.795"/>
            <path stroke="#1F3A49" stroke-width=".313" d="M48.717 371.837c1.268.857 3.239.653 4.784-.01M41.029 350.698c1.539-.329 3.13-.545 4.686-.302 1.556.243 3.084.991 3.996 2.276"/>
            <g transform="translate(0 332.522)">
                <mask id="L" fill="#fff">
                    <use xlink:href="#K"/>
                </mask>
                <path fill="#000" d="M43.73 2.833c4.717 1.955 7.395 8.639 7.385 19.041-.016 15.939-10.97 9.982-12.824 16.323-1.13 3.865 2.001 6.066 4.273 8.973 8.226 10.526 7.315 27.402 1.016 38.601-8.155 14.5-27.283 16.895-38.145 3.365-15.9-19.805 8.594-35.86 4.122-57.335C5.67 13.148 23.217-5.68 43.73 2.833" mask="url(#L)"/>
            </g>
            <path fill="#999" d="M39.949 380.645a40.56 40.56 0 0 0-1.597-1.877c-2.347-2.646-5.005-5.644-3.655-10.262 1.103-3.772 4.193-4.787 6.92-5.683 3.947-1.298 7.677-2.523 7.687-12.436.004-4.204-.401-7.864-1.16-10.886 1.933 3.35 2.975 8.397 2.971 14.895-.016 15.939-10.97 9.983-12.823 16.322-1.132 3.866 2 6.067 4.272 8.974 8.226 10.526 7.315 27.402 1.015 38.6a25.754 25.754 0 0 1-1.892 2.887c7.722-15.021 4.98-31.937-1.738-40.534"/>
            <g transform="translate(19.602 671.271)">
                <mask id="N" fill="#fff">
                    <use xlink:href="#M"/>
                </mask>
                <path fill="#999" d="M.127.135s2.401 9.64 3.305 11.45c.904 1.808.904 3.314.904 3.314h13.379S12.748 5.257 9.597 3.15C6.445 1.038.127.134.127.134" mask="url(#N)"/>
            </g>
            <path fill="#999" d="M17.447 667.011s-2.546 3.19-1.343 6.202c1.206 3.013 1.343 12.957 1.343 12.957h4.683s.904-9.216 2.11-9.58c1.203-.364 10.528 9.58 10.528 9.58h7.848s-3.127-3.834-6.628-9.58c-4.313-7.083-7.244-9.579-7.244-9.579H17.447z"/>
            <path fill="#999" d="M19.73 671.407l-2.284-4.396-1.059-10.032s6.24.976 8.334.904c1.286-.044 5.065 0 5.065 0s.335 9.789 3.27 14.248l-13.327-.724z"/>
            <g transform="translate(48.874 671.271)">
                <mask id="P" fill="#fff">
                    <use xlink:href="#O"/>
                </mask>
                <path fill="#999" d="M.68.135s2.402 9.64 3.306 11.45c.904 1.808.904 3.314.904 3.314H18.27S13.302 5.257 10.15 3.15C7 1.038.681.134.681.134" mask="url(#P)"/>
            </g>
            <path fill="#999" d="M47.273 667.011s-2.548 3.19-1.343 6.202c1.205 3.013 1.343 12.957 1.343 12.957h4.683s.904-9.216 2.109-9.58c1.204-.364 10.529 9.58 10.529 9.58h7.848s-3.127-3.834-6.63-9.58c-4.313-7.083-7.244-9.579-7.244-9.579H47.273z"/>
            <path fill="#999" d="M49.554 671.407l-2.282-4.396-1.059-10.032s6.24.976 8.333.904c1.285-.044 5.066 0 5.066 0s.333 9.789 3.268 14.248l-13.326-.724z"/>
            <path fill="#424242" d="M44.465 661.902h15.53v-5.814h-15.53zM14.64 661.902h15.53v-5.814H14.64z"/>
            <mask id="R" fill="#fff">
                <use xlink:href="#Q"/>
            </mask>
            <path fill="#D8D8D8" d="M99.9 380.816h107.73V303.19H99.9z" mask="url(#R)"/>
            <path fill="#F00" d="M109.267 319.604h88.995v-7.36h-88.995z" mask="url(#R)"/>
            <path fill="#E6E6E6" d="M152.407 356.607h45.855v-3.227h-45.855zM152.407 362.944h45.855v-3.227h-45.855zM152.407 369.283h45.855v-3.23h-45.855zM129.841 368.77h18.904v-15.39h-18.904z" mask="url(#R)"/>
            <path fill="#F00" d="M109.267 368.77h18.904v-15.39h-18.904z" mask="url(#R)"/>
            <path fill="#E6E6E6" d="M152.762 349.363h45.5v-25.35h-45.5zM109.267 349.363h39.478v-3.621h-39.478zM109.267 343.932h39.478v-3.623h-39.478zM109.267 338.5h39.478v-3.623h-39.478zM109.267 333.067h39.478v-3.623h-39.478zM109.267 327.635h39.478v-3.622h-39.478zM214.873 298.661v74.243l-7.242 8.149v-80.58z" mask="url(#R)"/>
            <path fill="#E6E6E6" d="M207.63 303.189l7.243-4.527H108.951l-9.053 4.527" mask="url(#R)"/>
            <path stroke="#E2E2E2" stroke-width=".1" d="M162.947 256.288h316.224M162.947 275.782h316.224M162.947 295.277h316.224M162.947 314.773h316.224M162.947 334.267h316.224" mask="url(#R)"/>
            <path stroke="#D70000" stroke-width=".5" d="M480.029 331.256l-34.43-19.734-12.995 12.997-51.981-21.66-41.153 36.822-28.157-12.995-8.664 8.665-8.665-4.332-6.495 4.332-47.652-69.316-32.488 19.494-4.331-8.663-39.847 18.043" mask="url(#R)"/>
            <path fill="#D70000" d="M205.182 276.866a2.166 2.166 0 1 1-4.33.001 2.166 2.166 0 0 1 4.33-.001" mask="url(#R)"/>
        </g>
    </g>
</svg>
