<svg xmlns="http://www.w3.org/2000/svg" width="73" height="83" viewBox="0 0 73 83">
    <defs>
        <linearGradient id="a" x1="50%" x2="50%" y1="0%" y2="100%">
            <stop offset="0%" stop-color="#E34A56"/>
            <stop offset="100%" stop-color="#7A161B"/>
        </linearGradient>
    </defs>
    <g fill="url(#a)" fill-rule="nonzero" transform="translate(-790 -1904)">
        <path d="M808.6 1913.45a1.448 1.448 0 0 0-2.049-.05l-.108.104a1.453 1.453 0 0 0 1.007 2.496c.362 0 .724-.135 1.006-.407l.094-.09c.58-.553.602-1.472.05-2.052zM841.56 1977.44a1.511 1.511 0 0 0-1.06-.44c-.396 0-.782.16-1.06.44-.28.278-.44.665-.44 1.06 0 .394.16.781.44 1.06.278.28.665.44 1.06.44s.782-.16 1.06-.44a1.51 1.51 0 0 0 .44-1.06c0-.394-.16-.781-.44-1.06zM840.5 1948c-3.033 0-5.5 2.439-5.5 5.437 0 2.441 1.637 4.511 3.882 5.196v12.768c0 .883.725 1.599 1.618 1.599.893 0 1.618-.716 1.618-1.599v-12.768c2.245-.685 3.882-2.755 3.882-5.196 0-2.998-2.467-5.437-5.5-5.437zm0 7.675c-1.249 0-2.265-1.004-2.265-2.238 0-1.235 1.016-2.239 2.265-2.239s2.265 1.004 2.265 2.239c0 1.234-1.016 2.238-2.265 2.238z"/>
        <path d="M861.365 1983.758h-7.88v-15.96c0-2.65.802-5.197 2.322-7.365 4.573-6.53 7.327-15.635 7.188-23.762-.153-8.904-3.769-17.196-10.183-23.35-6.412-6.152-14.884-9.459-23.855-9.317a33.52 33.52 0 0 0-18.125 5.642 1.614 1.614 0 0 0-.443 2.25 1.64 1.64 0 0 0 2.266.44 30.163 30.163 0 0 1 8.323-3.882v24.725l-2.461 2.442a5.55 5.55 0 0 0-2.596-.642c-3.061 0-5.552 2.473-5.552 5.512 0 3.04 2.49 5.512 5.552 5.512 3.062 0 5.552-2.473 5.552-5.512 0-.93-.234-1.808-.647-2.578l2.94-2.915c.306-.304.478-.717.478-1.147v-26.154a30.562 30.562 0 0 1 7.343-.382v14.795c-2.266.694-3.919 2.792-3.919 5.268 0 3.039 2.491 5.511 5.552 5.511 3.062 0 5.552-2.472 5.552-5.511 0-2.476-1.652-4.575-3.919-5.268v-14.395a30.152 30.152 0 0 1 6.852 2.085v24.05c0 .43.173.843.479 1.148l2.939 2.915a5.446 5.446 0 0 0-.647 2.578c0 3.04 2.49 5.512 5.552 5.512 3.062 0 5.552-2.473 5.552-5.512 0-3.04-2.49-5.512-5.552-5.512a5.55 5.55 0 0 0-2.595.642l-2.462-2.442v-21.7c8.68 5.152 14.575 14.501 14.759 25.247.126 7.368-2.467 15.947-6.605 21.855a15.989 15.989 0 0 0-2.906 9.217v15.96h-15.365v-13.942c0-.43-.173-.842-.48-1.146l-2.938-2.916c.412-.77.647-1.647.647-2.578 0-3.039-2.491-5.511-5.552-5.511-3.062 0-5.552 2.472-5.552 5.511 0 3.04 2.49 5.512 5.552 5.512a5.55 5.55 0 0 0 2.595-.641l2.461 2.441v13.27h-5.732v-2.424c0-3.486-2.857-6.322-6.369-6.322h-10.275c-3.535 0-6.41-2.855-6.41-6.364v-11.7c0-.895-.731-1.621-1.633-1.621h-7.334l5.378-17.608c.047-.153.07-.311.07-.47a29.764 29.764 0 0 1 5.32-17.007 1.614 1.614 0 0 0-.418-2.254 1.64 1.64 0 0 0-2.271.415 32.984 32.984 0 0 0-5.895 18.602l-5.948 19.473a1.612 1.612 0 0 0 .251 1.436c.308.412.795.655 1.312.655h7.901v10.079c0 5.297 4.341 9.606 9.677 9.606h10.275c1.71 0 3.102 1.382 3.102 3.08v2.424h-30.955c-.902 0-1.633.726-1.633 1.62 0 .896.731 1.622 1.633 1.622h69.732c.902 0 1.633-.726 1.633-1.621s-.731-1.621-1.633-1.621zm-45.444-40.997a2.28 2.28 0 0 1-2.286-2.27 2.28 2.28 0 0 1 2.286-2.27 2.28 2.28 0 0 1 2.286 2.27 2.28 2.28 0 0 1-2.286 2.27zm19.585-15.384a2.28 2.28 0 0 1-2.286 2.27 2.28 2.28 0 0 1-2.286-2.27 2.28 2.28 0 0 1 2.286-2.269 2.28 2.28 0 0 1 2.286 2.27zm14.522 10.844a2.28 2.28 0 0 1 2.286 2.27 2.28 2.28 0 0 1-2.286 2.27 2.28 2.28 0 0 1-2.286-2.27 2.28 2.28 0 0 1 2.286-2.27zm-23.498 27.225a2.28 2.28 0 0 1-2.286-2.27 2.28 2.28 0 0 1 2.286-2.27 2.28 2.28 0 0 1 2.286 2.27 2.28 2.28 0 0 1-2.286 2.27z"/>
    </g>
</svg>
