<svg xmlns="http://www.w3.org/2000/svg" width="87" height="85" viewBox="0 0 87 85">
    <defs>
        <linearGradient id="a" x1="50%" x2="50%" y1="0%" y2="100%">
            <stop offset="0%" stop-color="#E34A56"/>
            <stop offset="100%" stop-color="#7A161B"/>
        </linearGradient>
    </defs>
    <g fill="url(#a)" fill-rule="nonzero" transform="translate(-1127 -1901)">
        <path d="M1177.408 1915.59a22.361 22.361 0 0 0-15.913-6.59 22.361 22.361 0 0 0-15.914 6.59c-8.775 8.773-8.775 23.047 0 31.82a22.361 22.361 0 0 0 15.914 6.59 22.36 22.36 0 0 0 15.913-6.59 22.35 22.35 0 0 0 6.592-15.91 22.35 22.35 0 0 0-6.592-15.91zm-30.015 1.812a19.814 19.814 0 0 1 14.102-5.84 19.814 19.814 0 0 1 14.1 5.84 19.787 19.787 0 0 1 5.568 10.782l-6.986 6.83a4.566 4.566 0 0 0-6.034 1.445l-10.268-3.221.002-.09a4.572 4.572 0 0 0-4.567-4.565 4.572 4.572 0 0 0-4.567 4.566c0 .823.22 1.595.602 2.263l-5.387 5.583c-4.088-7.557-2.944-17.215 3.435-23.593zm26.551 21.59c0 1.106-.899 2.005-2.004 2.005a2.006 2.006 0 0 1-2.004-2.004c0-1.105.9-2.004 2.004-2.004 1.105 0 2.004.899 2.004 2.004zm-18.63-5.844c0 1.105-.899 2.004-2.004 2.004a2.006 2.006 0 0 1-2.004-2.004c0-1.104.899-2.003 2.004-2.003s2.004.899 2.004 2.003zm20.282 12.45a19.814 19.814 0 0 1-14.101 5.84 19.814 19.814 0 0 1-14.101-5.84 20.004 20.004 0 0 1-2.028-2.371l5.824-6.036a4.566 4.566 0 0 0 5.917-1.509l10.268 3.221-.002.09a4.572 4.572 0 0 0 4.567 4.566 4.572 4.572 0 0 0 4.567-4.566c0-.776-.195-1.507-.537-2.148l5.467-5.345a19.805 19.805 0 0 1-5.841 14.098z"/>
        <path d="M1150 1917.43l1.675 1.57c3.958-2.802 9.509-3.666 14.485-2.254l.84-1.964c-5.838-1.656-12.352-.64-17 2.649zM1168.11 1917l-1.11 1.826c.564.344 1.106.74 1.61 1.174l1.39-1.62a14.404 14.404 0 0 0-1.89-1.38zM1164.474 1946.612a17.49 17.49 0 0 1-8.526-.612l-.948 1.969a20.294 20.294 0 0 0 6.412 1.031c1.197 0 2.398-.104 3.588-.312l-.526-2.076z"/>
        <path d="M1192.052 1952.105l-1.822 1.84-4.521-4.879c5.35-7.896 6.639-17.773 3.863-26.623l3.587-3.541c.63.344 1.352.54 2.118.54 2.466 0 4.473-2.026 4.473-4.515a4.52 4.52 0 0 0-.489-2.049l7.7-7.6v3.928h2.51V1901h-8.129v2.534h3.796l-7.599 7.5a4.412 4.412 0 0 0-2.262-.622c-2.466 0-4.472 2.025-4.472 4.515 0 .796.206 1.545.567 2.195l-2.75 2.714a30.536 30.536 0 0 0-6.515-9.782c-11.852-11.963-31.135-11.963-42.987 0-10.557 10.657-11.71 27.268-3.458 39.225l-2.114 2.211a4.41 4.41 0 0 0-2.076-.518c-2.466 0-4.472 2.026-4.472 4.515 0 2.49 2.006 4.515 4.473 4.515 2.466 0 4.472-2.026 4.472-4.515 0-.814-.215-1.577-.59-2.238l1.846-1.931c.601.732 1.24 1.443 1.92 2.13a30.157 30.157 0 0 0 21.493 8.972c5.975 0 11.95-1.765 17.084-5.29l4.532 4.89-1.885 1.902 21.948 22.078 11.707-11.817-21.948-22.078zm3.225-39.16c1.083 0 1.963.89 1.963 1.982s-.88 1.981-1.963 1.981a1.974 1.974 0 0 1-1.962-1.981c0-1.092.88-1.981 1.962-1.981zm-63.804 44.523a1.974 1.974 0 0 1-1.963-1.981c0-1.092.88-1.981 1.963-1.981 1.082 0 1.962.889 1.962 1.98 0 1.093-.88 1.982-1.962 1.982zm9.422-5.812c-10.873-10.976-10.873-28.834 0-39.81a27.666 27.666 0 0 1 19.718-8.232 27.668 27.668 0 0 1 19.719 8.232c10.873 10.975 10.873 28.834 0 39.81-10.872 10.975-28.565 10.975-39.437 0zm38.831 3.954a30.71 30.71 0 0 0 4.457-4.482l4.271 4.608-4.449 4.491-4.279-4.617zm22.564 26.81l-18.392-18.501 8.157-8.235 18.392 18.501-8.157 8.235z"/>
        <path d="M1190.506 1959l-3.506 3.77 1.733 1.864 1.773-1.907 6.762 7.273 1.732-1.863zM1201.586 1971l1.414-1.414 1.414 1.414-1.414 1.414zM1140 1963h2v2h-2zM1140 1980h2v2h-2zM1161 1969h2v2h-2zM1197 1947h2v2h-2zM1200 1924h2v2h-2zM1210 1935h2v2h-2z"/>
    </g>
</svg>
