<svg xmlns="http://www.w3.org/2000/svg" width="161" height="124" viewBox="0 0 161 124">
    <g fill="none" fill-rule="evenodd">
        <path fill="#A00" d="M154.859 5L126 17.655 127.143 120 156 107.345z"/>
        <path fill="maroon" d="M32.583 5L4 18h123.419L156 5z"/>
        <path fill="#D60000" d="M159.786 0L161 111H30.212L29 0h130.786zm-4.141 4.233H33.24l1.123 102.536h122.403L155.645 4.233z"/>
        <path fill="#AAA" d="M28.77 0L30 111.286 1.227 124 0 12.714z"/>
        <path fill="#AAA" d="M161 111l-28.322 13H2l28.322-13z"/>
        <path fill="#DDD" d="M158 107H33V4h125z"/>
        <path fill="#999" d="M81.72 29.825a4.689 4.689 0 1 0-9.378 0 4.69 4.69 0 1 0 9.378 0M64.664 29.825a4.69 4.69 0 0 0-9.38 0 4.69 4.69 0 0 0 9.38 0M47.608 29.825a4.69 4.69 0 1 0-9.38 0 4.69 4.69 0 0 0 9.38 0M149.948 45.178a4.69 4.69 0 1 0-9.379 0 4.689 4.689 0 1 0 9.379 0M132.891 45.178a4.69 4.69 0 1 0-9.38 0 4.69 4.69 0 1 0 9.38 0M115.835 45.178c0-2.59-2.1-4.692-4.691-4.692a4.692 4.692 0 0 0-4.69 4.692 4.69 4.69 0 1 0 9.381 0M98.779 45.178a4.692 4.692 0 0 0-9.38 0 4.69 4.69 0 1 0 9.38 0M81.72 45.178a4.69 4.69 0 1 0-9.378 0 4.689 4.689 0 1 0 9.378 0M64.664 45.178a4.69 4.69 0 1 0-9.38 0 4.69 4.69 0 1 0 9.38 0M47.608 45.178a4.69 4.69 0 1 0-9.38 0 4.69 4.69 0 1 0 9.38 0M149.948 60.534a4.69 4.69 0 1 0-9.379 0 4.69 4.69 0 1 0 9.379 0M132.891 60.534a4.69 4.69 0 1 0-9.38 0 4.69 4.69 0 0 0 9.38 0M115.835 60.534c0-2.592-2.1-4.693-4.691-4.693a4.692 4.692 0 0 0-4.69 4.693c0 2.591 2.101 4.692 4.69 4.692a4.692 4.692 0 0 0 4.691-4.692M98.779 60.534a4.692 4.692 0 0 0-9.38 0c0 2.591 2.1 4.692 4.688 4.692a4.692 4.692 0 0 0 4.692-4.692M81.72 60.534a4.69 4.69 0 1 0-9.378 0 4.69 4.69 0 1 0 9.378 0M64.664 60.534a4.69 4.69 0 1 0-9.38 0 4.69 4.69 0 0 0 9.38 0M47.608 60.534a4.69 4.69 0 1 0-9.38 0 4.69 4.69 0 0 0 9.38 0M149.948 75.89a4.689 4.689 0 1 0-9.379 0 4.69 4.69 0 1 0 9.379 0M132.891 75.89a4.69 4.69 0 1 0-9.38 0 4.69 4.69 0 0 0 9.38 0M115.835 75.89a4.69 4.69 0 1 0-9.38 0c0 2.59 2.1 4.691 4.689 4.691a4.692 4.692 0 0 0 4.691-4.692M98.779 75.89a4.69 4.69 0 1 0-9.38 0c0 2.59 2.1 4.691 4.688 4.691a4.692 4.692 0 0 0 4.692-4.692M81.72 75.89a4.689 4.689 0 1 0-9.378 0 4.69 4.69 0 1 0 9.378 0M64.664 75.89a4.69 4.69 0 0 0-9.38 0 4.69 4.69 0 0 0 9.38 0M47.608 75.89a4.69 4.69 0 1 0-9.38 0 4.69 4.69 0 0 0 9.38 0M149.948 91.242a4.688 4.688 0 1 0-9.379 0 4.689 4.689 0 1 0 9.379 0M132.891 91.242a4.69 4.69 0 1 0-9.38 0 4.69 4.69 0 1 0 9.38 0M115.835 91.242a4.69 4.69 0 1 0-9.38 0 4.69 4.69 0 1 0 9.38 0"/>
        <path fill="#F00" d="M71.487 60.106a6.825 6.825 0 0 0 6.823 6.826 6.825 6.825 0 0 0 0-13.65 6.827 6.827 0 0 0-6.823 6.824"/>
    </g>
</svg>
