<svg xmlns="http://www.w3.org/2000/svg" width="74" height="74" viewBox="0 0 74 74">
    <g fill="none" fill-rule="evenodd">
        <circle cx="37" cy="37" r="37" fill="#C3242B"/>
        <g fill="#FFF" fill-rule="nonzero">
            <path d="M31.527 26.958h-.047a.97.97 0 0 1-.962-.98 2.788 2.788 0 0 0-1.698-2.59 2.781 2.781 0 0 0-3.038.58 2.762 2.762 0 0 0-.832 1.966.971.971 0 1 1-1.94-.016 4.733 4.733 0 0 1 2.373-4.153 4.72 4.72 0 0 1 4.778.044 4.733 4.733 0 0 1 2.296 4.198.969.969 0 0 1-.93.951zM50.85 27.113h-.048a.971.971 0 0 1-.92-1.017 2.79 2.79 0 0 0-1.274-2.48 2.782 2.782 0 0 0-2.782-.136 2.79 2.79 0 0 0-1.508 2.345.972.972 0 0 1-1.495.769.972.972 0 0 1-.443-.865 4.726 4.726 0 0 1 4.945-4.497 4.728 4.728 0 0 1 4.49 4.952.969.969 0 0 1-.965.929zM24.939 43.886c-1.923 2.563-2.766 5.446-2.773 8.887a.992.992 0 0 1-.836 1 .972.972 0 0 1-1.103-.961c0-3.254.605-6.006 2.17-8.61a1.62 1.62 0 0 1 2.542-.316zM54.814 52.812a.971.971 0 1 1-1.941 0 15.364 15.364 0 0 0-9.582-14.246 15.328 15.328 0 0 0-16.782 3.55c-.454-.467-.878-.961-1.268-1.482a17.26 17.26 0 0 1 12.283-5.136 17.26 17.26 0 0 1 12.283 5.136 17.366 17.366 0 0 1 5 12.176l.007.002z"/>
            <path d="M26.51 42.11c-.454.468-.878.964-1.27 1.485-.463-.47-.9-.965-1.308-1.484.408-.518.845-1.013 1.309-1.482.39.521.814 1.016 1.268 1.482z"/>
            <path d="M25.24 40.63c-.463.468-.9.963-1.308 1.48a17.232 17.232 0 0 1-3.705-10.657c-.01-.5.353-.93.848-1.004a.97.97 0 0 1 1.093.963 15.3 15.3 0 0 0 3.073 9.217zM48.084 45.176c-2.97 2.408-6.452 3.555-10.564 3.555-4.612.001-9.032-1.849-12.272-5.136.39-.521.814-1.017 1.268-1.484a15.28 15.28 0 0 0 11.011 4.677c4.318 0 7.925-1.498 10.716-4.379a1.88 1.88 0 0 1-.159 2.767zM54.814 31.455c0 3.792-1.462 8.253-3.864 10.986a.406.406 0 0 1-.71-.196c-.11-.58-.133-1.288-.454-1.611a15.292 15.292 0 0 0 3.069-9.21.972.972 0 0 1 1.084-.966c.501.063.877.491.875.997z"/>
        </g>
    </g>
</svg>
