<svg xmlns="http://www.w3.org/2000/svg" width="198" height="42" viewBox="0 0 198 42">
    <g fill="#000" fill-rule="evenodd" opacity=".507">
        <path d="M0 0h20l-.001 20H0V0M22 0h20c0 6.667 0 13.333-.002 20H22.002C21.999 13.333 22 6.667 22 0M181.67 7.054c1.822-1.178 4.176-1.288 6.23-.727.018 1.212.002 2.425.008 3.639-.976-.427-2.124-.705-3.15-.287-.815.32-1.3 1.15-1.427 1.98-.153 1.054-.053 2.12-.08 3.18 2.086.004 4.17 0 6.255.002.016-1.344-.016-2.69.018-4.034 1.418-.4 2.82-.85 4.23-1.272.012 1.771-.016 3.543.016 5.315 1.41-.02 2.82-.005 4.23-.01v3.448c-1.415-.058-2.832-.016-4.247-.02.006 1.981.001 3.963.003 5.946.022 1.098-.06 2.201.07 3.295.078.645.314 1.36.923 1.693 1.02.567 2.314.32 3.251-.303v3.482c-1.222.527-2.587.687-3.908.594-1.254-.092-2.553-.545-3.371-1.535-.945-1.119-1.189-2.634-1.208-4.05-.01-3.043.002-6.084-.004-9.127-2.086-.001-4.172-.002-6.257.001-.003 4.774-.001 9.547-.001 14.32h-4.276c0-4.772-.006-9.543.003-14.315-.992-.019-1.984.005-2.976-.015.004-1.133.009-2.268-.002-3.402.987-.022 1.974-.013 2.963-.006.073-1.506-.159-3.057.295-4.524.383-1.326 1.236-2.52 2.411-3.268M88.112 8.03c.84-.132 1.748.168 2.304.857.652.753.772 1.953.29 2.834-.535.994-1.73 1.456-2.772 1.217-1.08-.204-1.98-1.257-1.932-2.431-.031-1.236.955-2.338 2.11-2.476M55.001 8.002h6.452c2.007 4.927 4.03 9.848 6.04 14.774.514 1.232.995 2.478 1.533 3.7 2.583-6.155 5.203-12.295 7.767-18.46C78.86 7.986 80.93 8.01 83 8.006c-.005 8.33-.002 16.66-.001 24.99-1.493-.003-2.985.012-4.477-.008.016-6.147-.001-12.295.008-18.443.002-.276-.008-.553-.027-.829a3.275 3.275 0 0 0-.233.4c-2.564 6.293-5.176 12.567-7.725 18.866-1.062.037-2.125.002-3.188.019-2.645-6.293-5.256-12.6-7.888-18.897a4.715 4.715 0 0 0-.223-.38c-.054 2.693-.008 5.389-.023 8.082.001 3.73-.003 7.46.001 11.19-1.408.004-2.816 0-4.223.001 0-8.33-.002-16.662 0-24.994M99.44 15.436c2.06-.596 4.283-.572 6.342.019.425.12.836.288 1.218.515-.024 1.381 0 2.763-.013 4.146-1.377-1.068-3.123-1.745-4.873-1.521a4.996 4.996 0 0 0-3.547 2c-1.068 1.413-1.315 3.29-1.131 5.02.137 1.353.689 2.705 1.725 3.602 1.077.971 2.586 1.316 3.995 1.207 1.392-.162 2.706-.76 3.831-1.596.012 1.308-.006 2.617.01 3.926-1.746 1.055-3.839 1.327-5.837 1.227-2.044-.11-4.082-.896-5.562-2.355-1.608-1.574-2.48-3.818-2.584-6.066-.104-2.337.364-4.775 1.689-6.727 1.11-1.665 2.845-2.843 4.737-3.397M129.476 15.125c2.01-.265 4.13-.147 5.995.732 1.62.755 2.931 2.153 3.658 3.826.776 1.781.964 3.782.833 5.713-.13 1.886-.702 3.776-1.841 5.275-1.167 1.59-2.925 2.67-4.808 3.07a11.63 11.63 0 0 1-4.903-.005c-1.926-.426-3.71-1.582-4.838-3.265-1.326-1.95-1.703-4.43-1.534-6.766.114-1.982.71-3.98 1.933-5.535 1.34-1.742 3.394-2.77 5.505-3.045zm1.25 3.44c-1.002.057-2.014.408-2.756 1.125-1.023.96-1.49 2.39-1.618 3.78-.14 1.528-.038 3.14.637 4.533.524 1.082 1.488 1.932 2.624 2.242 1.117.3 2.332.274 3.414-.156.924-.373 1.657-1.16 2.057-2.092.605-1.381.664-2.935.59-4.426-.104-1.363-.478-2.792-1.446-3.776-.905-.947-2.244-1.316-3.503-1.23zM148.078 15.156c1.992-.352 4.077-.093 5.963.625.002 1.33 0 2.658 0 3.986a7.557 7.557 0 0 0-4.524-1.345c-.805.031-1.69.375-2.058 1.145-.292.763-.09 1.762.625 2.218 1.221.823 2.679 1.172 3.944 1.909.997.563 1.964 1.3 2.468 2.363.95 1.989.547 4.617-1.12 6.101-1.593 1.498-3.886 1.912-5.996 1.833-1.498-.098-3.003-.395-4.38-1.012.006-1.398-.008-2.795.008-4.191 1.158.846 2.494 1.452 3.908 1.697.985.162 2.056.169 2.973-.274.878-.44 1.036-1.696.515-2.464-.489-.592-1.205-.919-1.881-1.239-1.27-.574-2.603-1.055-3.718-1.916-.784-.615-1.378-1.482-1.61-2.46-.344-1.441-.237-3.066.596-4.325.951-1.468 2.604-2.348 4.287-2.65M163.524 15.119c2.092-.269 4.312-.123 6.221.873 1.665.861 2.955 2.416 3.6 4.215.504 1.375.681 2.86.652 4.326.003 2.188-.568 4.434-1.896 6.17-1.243 1.68-3.145 2.772-5.153 3.115-1.963.329-4.037.243-5.903-.516-1.89-.77-3.461-2.339-4.257-4.272-.83-1.97-.918-4.188-.66-6.293.272-2.105 1.194-4.164 2.765-5.564 1.287-1.169 2.945-1.83 4.631-2.054zm1.132 3.45c-1.16.067-2.31.583-3.06 1.517-.82 1-1.174 2.321-1.269 3.608-.099 1.329 0 2.705.497 3.947.413 1.042 1.198 1.949 2.21 2.392.938.417 1.995.492 2.998.337.935-.142 1.84-.605 2.45-1.363.603-.755.922-1.706 1.083-2.659.202-1.28.205-2.598-.035-3.871-.213-1.086-.677-2.164-1.517-2.884-.91-.827-2.174-1.11-3.357-1.025zM117.801 15.602c1.249-.701 2.836-.76 4.199-.331-.006 1.41 0 2.82-.004 4.23-.892-.54-2.005-.772-3.058-.672-1.284.136-2.302 1.058-2.83 2.114-.572 1.12-.68 2.385-.644 3.608V33h-4.46c-.004-5.886.005-11.774-.004-17.66 1.489-.018 2.978-.01 4.467-.004-.007 1.011 0 2.022-.004 3.034.484-1.1 1.203-2.168 2.338-2.768M86 16.01c1.333-.007 2.667-.021 4 .006-.016 5.994-.001 11.99-.007 17.984h-3.99c-.004-5.997 0-11.993-.003-17.99M0 22c6.666.002 13.333-.001 20 .002V42H0V22M22.001 22.002C28.667 21.999 35.333 22 42 22v20H22c.001-6.667-.001-13.333.001-19.998"/>
    </g>
</svg>
