<svg xmlns="http://www.w3.org/2000/svg" width="92" height="92" viewBox="0 0 92 92">
    <defs>
        <linearGradient id="a" x1="50%" x2="50%" y1="0%" y2="100%">
            <stop offset="0%" stop-color="#E34A56"/>
            <stop offset="100%" stop-color="#7A161B"/>
        </linearGradient>
    </defs>
    <g fill="url(#a)" fill-rule="nonzero" transform="translate(-1121 -2132)">
        <path d="M1192.165 2185.665h-8.102c-.856-4.313-4.67-7.574-9.23-7.574-4.56 0-8.374 3.261-9.23 7.574h-6.268v-7.923a1.835 1.835 0 0 0-1.835-1.835 5.746 5.746 0 0 1-5.74-5.74 5.746 5.746 0 0 1 5.74-5.74 1.835 1.835 0 0 0 1.835-1.834v-9.758a1.835 1.835 0 0 0-1.835-1.835h-34.665a1.835 1.835 0 0 0-1.835 1.835v69.33c0 1.013.821 1.835 1.835 1.835h69.33a1.835 1.835 0 0 0 1.835-1.835V2187.5a1.835 1.835 0 0 0-1.835-1.835zm-67.495-24.574h5.768a1.835 1.835 0 0 0 0-3.67h-5.768v-2.752h30.995v6.268c-4.313.856-7.574 4.67-7.574 9.23 0 4.561 3.261 8.374 7.574 9.23v6.268h-7.923a1.835 1.835 0 0 0-1.835 1.835 5.746 5.746 0 0 1-5.74 5.74 5.746 5.746 0 0 1-5.74-5.74 1.835 1.835 0 0 0-1.834-1.835h-7.923v-24.574zm30.995 51.316v7.923h-30.995v-30.995h6.268c.855 4.313 4.669 7.574 9.23 7.574 4.56 0 8.374-3.261 9.23-7.574h6.267v7.923c0 1.014.822 1.835 1.835 1.835a5.746 5.746 0 0 1 5.74 5.74 5.746 5.746 0 0 1-5.74 5.74 1.835 1.835 0 0 0-1.835 1.834zm34.665 7.923h-2.752v-5.768a1.835 1.835 0 1 0-3.67 0v5.768h-24.573v-6.268c4.313-.856 7.575-4.669 7.575-9.23 0-4.56-3.262-8.373-7.575-9.23v-6.267h7.923a1.835 1.835 0 0 0 1.835-1.835 5.746 5.746 0 0 1 5.74-5.74 5.746 5.746 0 0 1 5.74 5.74c0 1.013.82 1.835 1.834 1.835h7.923v30.995z"/>
        <path d="M1211.201 2132h-33.978c-.993 0-1.799.793-1.799 1.771v7.82c-4.227.827-7.424 4.507-7.424 8.91 0 4.401 3.197 8.081 7.424 8.907v7.821c0 .978.806 1.771 1.799 1.771h9.565c.993 0 1.798-.793 1.798-1.771 0-3.055 2.524-5.54 5.626-5.54 3.103 0 5.626 2.485 5.626 5.54 0 .978.805 1.771 1.799 1.771h9.565c.993 0 1.798-.793 1.798-1.771v-33.458c0-.978-.805-1.771-1.799-1.771zm-1.798 33.458h-6.144c-.839-4.163-4.576-7.31-9.047-7.31-4.47 0-8.208 3.147-9.047 7.31h-6.144v-7.647c0-.978-.805-1.771-1.798-1.771-3.103 0-5.626-2.485-5.626-5.54s2.523-5.54 5.626-5.54c.993 0 1.798-.793 1.798-1.77v-7.648h30.382v29.916zM1134.535 2158h-.07c-.809 0-1.465.672-1.465 1.5s.656 1.5 1.465 1.5h.07c.809 0 1.465-.672 1.465-1.5s-.656-1.5-1.465-1.5zM1185.5 2208c-.828 0-1.5.656-1.5 1.465v.07c0 .809.672 1.465 1.5 1.465s1.5-.656 1.5-1.465v-.07c0-.809-.672-1.465-1.5-1.465z"/>
    </g>
</svg>
