<svg xmlns="http://www.w3.org/2000/svg" width="93" height="93" viewBox="0 0 93 93">
    <defs>
        <linearGradient id="a" x1="50%" x2="50%" y1="0%" y2="100%">
            <stop offset="0%" stop-color="#E34A56"/>
            <stop offset="100%" stop-color="#7A161B"/>
        </linearGradient>
    </defs>
    <g fill="url(#a)" fill-rule="nonzero" transform="translate(-425 -2134)">
        <path d="M472.423 2191.244a1.459 1.459 0 0 0-1.943-.692 23.23 23.23 0 0 1-3.69 1.38c-.53.148-.93.58-1.038 1.119l-1.543 7.716a1.64 1.64 0 0 1-1.604 1.315h-4.21a1.64 1.64 0 0 1-1.604-1.315l-1.543-7.716a1.459 1.459 0 0 0-1.038-1.12 23.18 23.18 0 0 1-5.123-2.122 1.46 1.46 0 0 0-1.525.057l-6.549 4.365a1.64 1.64 0 0 1-2.064-.204l-2.977-2.977a1.64 1.64 0 0 1-.204-2.064l4.365-6.549a1.458 1.458 0 0 0 .057-1.525 23.173 23.173 0 0 1-2.123-5.123 1.458 1.458 0 0 0-1.119-1.038l-7.716-1.543a1.64 1.64 0 0 1-1.315-1.604v-4.21a1.64 1.64 0 0 1 1.315-1.604l7.716-1.543c.54-.108.971-.509 1.12-1.037a23.18 23.18 0 0 1 2.122-5.124 1.46 1.46 0 0 0-.057-1.525l-4.365-6.548a1.64 1.64 0 0 1 .205-2.064l2.976-2.977a1.64 1.64 0 0 1 2.065-.204l6.548 4.365a1.459 1.459 0 0 0 1.525.057 23.18 23.18 0 0 1 5.124-2.123c.529-.148.93-.58 1.037-1.119l1.543-7.716a1.64 1.64 0 0 1 1.604-1.315h4.21a1.64 1.64 0 0 1 1.604 1.315l1.544 7.716c.107.54.508.971 1.037 1.12a23.18 23.18 0 0 1 5.124 2.122 1.46 1.46 0 0 0 1.525-.057l6.548-4.365a1.64 1.64 0 0 1 2.064.204l2.977 2.977c.55.55.635 1.418.205 2.064l-4.366 6.548a1.458 1.458 0 0 0-.057 1.526 23.18 23.18 0 0 1 2.123 5.123c.148.53.58.93 1.119 1.038l7.716 1.543a1.64 1.64 0 0 1 1.315 1.604v4.21a1.64 1.64 0 0 1-1.315 1.604l-7.716 1.543c-.539.108-.971.509-1.119 1.038a23.22 23.22 0 0 1-1.422 3.778 1.459 1.459 0 1 0 2.63 1.262c.525-1.093.975-2.23 1.343-3.389l6.856-1.371a4.566 4.566 0 0 0 3.66-4.465v-4.21c0-2.163-1.54-4.041-3.66-4.466l-6.856-1.37a26.106 26.106 0 0 0-1.703-4.11l3.879-5.818c1.2-1.8.96-4.216-.57-5.745l-2.976-2.977a4.566 4.566 0 0 0-5.746-.57l-5.818 3.88a26.123 26.123 0 0 0-4.109-1.703l-1.371-6.856a4.565 4.565 0 0 0-4.465-3.66h-4.21a4.566 4.566 0 0 0-4.465 3.66l-1.371 6.856a26.106 26.106 0 0 0-4.11 1.703l-5.817-3.879a4.566 4.566 0 0 0-5.746.57l-2.977 2.976a4.566 4.566 0 0 0-.569 5.746l3.879 5.818a26.116 26.116 0 0 0-1.703 4.109l-6.856 1.371a4.566 4.566 0 0 0-3.66 4.465v4.21c0 2.163 1.54 4.04 3.66 4.465l6.856 1.371a26.103 26.103 0 0 0 1.703 4.11l-3.879 5.817c-1.2 1.8-.96 4.216.57 5.746l2.976 2.977a4.566 4.566 0 0 0 5.746.569l5.818-3.879a26.116 26.116 0 0 0 4.109 1.703l1.371 6.856a4.566 4.566 0 0 0 4.465 3.66h4.21c2.163 0 4.041-1.54 4.465-3.66l1.372-6.856a26.137 26.137 0 0 0 3.29-1.296 1.46 1.46 0 0 0 .691-1.944z"/>
        <path d="M473.143 2177.837a1.498 1.498 0 0 0 2.013-.64 16.519 16.519 0 0 0 1.844-7.576c0-9.165-7.542-16.621-16.813-16.621-4.41 0-8.578 1.676-11.735 4.72a1.467 1.467 0 0 0-.027 2.09 1.508 1.508 0 0 0 2.115.027 13.83 13.83 0 0 1 9.647-3.88c7.62 0 13.821 6.13 13.821 13.664 0 2.194-.51 4.288-1.514 6.226a1.47 1.47 0 0 0 .649 1.99zM446.783 2163.08a1.48 1.48 0 0 0-1.881.917 16.54 16.54 0 0 0-.902 5.403c0 9.153 7.464 16.6 16.639 16.6 3.528 0 6.9-1.088 9.749-3.147.662-.478.81-1.402.33-2.062a1.483 1.483 0 0 0-2.066-.33 13.6 13.6 0 0 1-8.014 2.585c-7.542 0-13.678-6.122-13.678-13.647 0-1.522.25-3.017.74-4.442a1.475 1.475 0 0 0-.917-1.876zM515.172 2198.157l-4.249-.85c-.258-.77-.57-1.521-.932-2.248l2.404-3.606a3.527 3.527 0 0 0-.44-4.439l-1.97-1.97a3.527 3.527 0 0 0-4.438-.44l-3.606 2.405a17.747 17.747 0 0 0-2.249-.932l-.85-4.25a3.527 3.527 0 0 0-3.449-2.827h-2.786a3.527 3.527 0 0 0-3.45 2.828l-.85 4.249a17.8 17.8 0 0 0-2.248.932l-3.606-2.404a3.527 3.527 0 0 0-4.438.44l-1.97 1.97a3.527 3.527 0 0 0-.44 4.438l2.404 3.606c-.497 1-.9 2.046-1.2 3.122a1.47 1.47 0 0 0 2.83.792c.32-1.144.777-2.247 1.358-3.28a1.47 1.47 0 0 0-.057-1.536l-2.89-4.334a.58.58 0 0 1 .073-.73l1.97-1.97a.581.581 0 0 1 .73-.073l4.334 2.89a1.47 1.47 0 0 0 1.537.057 14.831 14.831 0 0 1 3.28-1.359 1.469 1.469 0 0 0 1.044-1.127l1.021-5.107a.58.58 0 0 1 .568-.465h2.786a.58.58 0 0 1 .568.465l1.021 5.108a1.47 1.47 0 0 0 1.045 1.126c1.144.32 2.247.778 3.28 1.36a1.47 1.47 0 0 0 1.536-.058l4.334-2.89a.58.58 0 0 1 .73.073l1.97 1.97a.581.581 0 0 1 .073.73l-2.89 4.334a1.469 1.469 0 0 0-.057 1.537 14.831 14.831 0 0 1 1.359 3.28c.149.532.584.936 1.127 1.044l5.107 1.021a.58.58 0 0 1 .465.568v2.786a.58.58 0 0 1-.465.568l-5.108 1.021a1.47 1.47 0 0 0-1.127 1.045 14.828 14.828 0 0 1-1.358 3.28 1.47 1.47 0 0 0 .057 1.536l2.89 4.334a.58.58 0 0 1-.073.73l-1.97 1.97a.58.58 0 0 1-.73.073l-4.335-2.89a1.47 1.47 0 0 0-1.536-.057 14.831 14.831 0 0 1-3.28 1.359 1.469 1.469 0 0 0-1.044 1.127l-1.021 5.107a.58.58 0 0 1-.568.465h-2.787a.58.58 0 0 1-.567-.465l-1.022-5.108a1.47 1.47 0 0 0-1.044-1.126 14.828 14.828 0 0 1-3.28-1.36 1.47 1.47 0 0 0-1.536.058l-4.334 2.89a.58.58 0 0 1-.73-.073l-1.97-1.97a.581.581 0 0 1-.073-.73l2.89-4.334c.306-.46.329-1.054.057-1.537a14.831 14.831 0 0 1-1.359-3.28 1.469 1.469 0 0 0-1.127-1.044l-5.107-1.021a.58.58 0 0 1-.465-.568v-2.786a.58.58 0 0 1 .465-.568l.313-.063a1.47 1.47 0 1 0-.577-2.881l-.313.062a3.527 3.527 0 0 0-2.827 3.45v2.786c0 1.671 1.19 3.122 2.828 3.45l4.249.85c.259.77.57 1.521.932 2.248l-2.404 3.606a3.527 3.527 0 0 0 .44 4.439l1.97 1.97a3.527 3.527 0 0 0 4.438.44l3.606-2.405c.727.362 1.479.673 2.249.932l.85 4.25a3.528 3.528 0 0 0 3.449 2.827h2.787c1.67 0 3.121-1.19 3.449-2.828l.85-4.249c.77-.259 1.522-.57 2.248-.932l3.606 2.404a3.527 3.527 0 0 0 4.439-.44l1.97-1.97a3.527 3.527 0 0 0 .44-4.438l-2.404-3.606c.361-.727.673-1.479.931-2.249l4.25-.85a3.527 3.527 0 0 0 2.827-3.449v-2.786c0-1.671-1.19-3.122-2.828-3.45z"/>
        <path d="M494.5 2198.036a5.47 5.47 0 0 1 5.464 5.464 1.518 1.518 0 0 0 3.036 0c0-4.687-3.813-8.5-8.5-8.5-4.687 0-8.5 3.813-8.5 8.5 0 4.687 3.813 8.5 8.5 8.5a8.42 8.42 0 0 0 5.193-1.77 1.518 1.518 0 0 0-1.856-2.403 5.412 5.412 0 0 1-3.337 1.137 5.47 5.47 0 0 1-5.464-5.464 5.47 5.47 0 0 1 5.464-5.464zM470 2170c0-4.963-4.038-9-9-9-4.963 0-9 4.038-9 9 0 4.963 4.037 9 9 9s9-4.038 9-9zm-15.046 0a6.053 6.053 0 0 1 6.046-6.046 6.053 6.053 0 0 1 6.046 6.046 6.053 6.053 0 0 1-6.046 6.046 6.052 6.052 0 0 1-6.046-6.046z"/>
    </g>
</svg>
