<svg xmlns="http://www.w3.org/2000/svg" width="93" height="86" viewBox="0 0 93 86">
    <defs>
        <linearGradient id="a" x1="50%" x2="50%" y1="0%" y2="100%">
            <stop offset="0%" stop-color="#E34A56"/>
            <stop offset="100%" stop-color="#7A161B"/>
        </linearGradient>
    </defs>
    <g fill="url(#a)" fill-rule="nonzero">
        <path d="M80.817 3.399C76.272.777 71.287-.243 66.301.049 57.357.63 51.493 5.583 49.44 7.768c-.587.583-.587 1.603 0 2.185.586.583 1.613.583 2.2 0 1.759-2.04 7.037-6.41 14.808-6.992 4.399-.292 8.797.728 12.903 3.06 2.932 1.602 4.838 4.807 4.838 8.157v17.919c0 .291.147.728.294 1.02l3.812 4.807h-2.64c-.44 0-.732.146-1.026.437-.293.292-.44.583-.44 1.02V54.68c0 3.642-2.932 6.555-6.598 6.555H62.196c-.88 0-1.466.583-1.466 1.457v21.852c0 .874.586 1.457 1.466 1.457s1.466-.728 1.466-1.457V64.148h13.93c5.278 0 9.53-4.225 9.53-9.47v-13.84h4.399c.586 0 1.173-.29 1.32-.873.292-.583.146-1.166-.147-1.603l-5.572-6.847V14.034c0-4.37-2.346-8.45-6.305-10.635z"/>
        <circle cx="76.5" cy="25.5" r="1.5"/>
        <path d="M1.48 40.989h4.398v13.794c0 5.227 4.252 9.437 9.53 9.437h13.93v20.328c0 .871.586 1.452 1.466 1.452s1.466-.726 1.466-1.452v-21.78c0-.87-.586-1.451-1.466-1.451H15.409c-3.666 0-6.598-2.904-6.598-6.534V39.537c0-.436-.147-.726-.44-1.016-.294-.29-.587-.436-1.027-.436H4.56l3.812-4.791c.293-.29.44-.726.44-1.017V14.418c0-3.485 1.906-6.679 4.838-8.276 3.959-2.323 8.211-3.34 12.61-3.05 7.917.436 13.196 5.083 15.102 6.97.586.58 1.613.58 2.2 0 .586-.58.586-1.452 0-2.178C41.36 5.706 35.495.48 26.404.044c-4.985-.29-9.823.87-14.369 3.484-3.812 2.178-6.158 6.389-6.158 10.89v17.278L.306 38.521c-.293.435-.44 1.016-.146 1.597.146.58.733.871 1.32.871z"/>
        <circle cx="16.5" cy="25.5" r="1.5"/>
        <circle cx="56.5" cy="74.5" r="1.5"/>
        <circle cx="24.5" cy="74.5" r="1.5"/>
        <path d="M55 78.4v4.2c0 .84.6 1.4 1.5 1.4s1.5-.56 1.5-1.4v-4.2c0-.84-.6-1.4-1.5-1.4s-1.5.56-1.5 1.4zM23 82.6c0 .84.6 1.4 1.5 1.4s1.5-.56 1.5-1.4v-4.2c0-.84-.6-1.4-1.5-1.4s-1.5.56-1.5 1.4v4.2zM35 25.982c0 .842.571 1.404 1.429 1.404h22.857l-2.572 3.368c-.428.562-.285 1.544.286 1.965.286.14.571.281.857.281.429 0 .857-.14 1.143-.561l5-6.457-5-6.456c-.429-.562-1.429-.702-2-.281-.571.42-.714 1.403-.286 1.965l2.572 3.368H36.429c-.858 0-1.429.562-1.429 1.404zM30 43.982c0 .561.435 1.123 1.015 1.263l3.915 5.194c.29.42.725.561 1.16.561.29 0 .58-.14.87-.28.58-.422.725-1.404.29-1.966l-2.61-3.368h22.91c.87 0 1.45-.562 1.45-1.404 0-.842-.58-1.404-1.45-1.404H34.64l2.61-3.368c.435-.562.29-1.544-.29-1.965-.58-.421-1.595-.28-2.03.28l-3.915 5.194c-.58.14-1.015.702-1.015 1.263z"/>
    </g>
</svg>
